<svg width="210" height="75" viewBox="0 0 210 75" fill="none" xmlns="http://www.w3.org/2000/svg">
<path d="M1.27734 41.3438C1.27734 47.2656 4.42578 50.418 10.3516 50.418H18.6719C24.5312 50.418 27.7461 47.2656 27.7461 41.3438V23.8242C27.7461 23.1289 27.3672 22.8125 26.7383 22.8125H16.1484C15.457 22.8125 15.1406 23.1289 15.1406 23.8242V30.125C15.1406 30.7539 15.457 31.1328 16.1484 31.1328H19.4258V39.5781C19.4258 41.2812 18.543 42.0977 16.9062 42.0977H12.3672C10.7305 42.0977 9.84766 41.2812 9.84766 39.5781V10.8398C9.84766 9.20312 10.668 8.32031 12.3672 8.32031H16.9062C18.543 8.32031 19.4258 9.20312 19.4258 10.8398V15.6289C19.4258 16.2617 19.7422 16.6367 20.4336 16.6367H26.7383C27.3672 16.6367 27.7461 16.2617 27.7461 15.6289V9.07422C27.7461 3.15234 24.5312 0 18.6719 0H10.3516C4.42578 0 1.27734 3.15234 1.27734 9.07422V41.3438Z" fill="black"/>
<path d="M61.1992 9.07422C61.1992 3.15234 58.0469 0 52.1211 0H36.3047C35.6719 0 35.2969 0.378906 35.2969 1.00781V49.4102C35.2969 50.0391 35.6719 50.418 36.3047 50.418H42.8594C43.4883 50.418 43.8672 50.0391 43.8672 49.4102V33.5273H48.2148L52.4375 49.5352C52.5625 50.1016 52.8789 50.418 53.5078 50.418H60.0625C60.7578 50.418 61.1367 50.0391 60.9453 49.2852L56.5977 32.7734C59.6211 31.4492 61.1992 28.6758 61.1992 24.4531V9.07422ZM43.8672 25.207V8.32031H50.1055C51.7461 8.32031 52.625 9.20312 52.625 10.8398V22.6875C52.625 24.3281 51.7461 25.207 50.1055 25.207H43.8672Z" fill="#38BDF8"/>
<path d="M68.7539 41.3438C68.7539 47.2656 71.9023 50.418 77.8281 50.418H84.8867C90.8125 50.418 93.9609 47.2656 93.9609 41.3438V9.07422C93.9609 3.15234 90.8125 0 84.8867 0H77.8281C71.9023 0 68.7539 3.15234 68.7539 9.07422V41.3438ZM79.6563 42.2891C78.0156 42.2891 77.1328 41.4688 77.1328 39.7656V10.6523C77.1328 9.01172 78.0156 8.12891 79.6563 8.12891H83.3125C84.9492 8.12891 85.832 9.01172 85.832 10.6523V39.7656C85.832 41.4688 84.9492 42.2891 83.3125 42.2891H79.6563Z" fill="black"/>
<path d="M126.789 9.07422C126.789 3.15234 123.578 0 117.652 0H102.527C101.895 0 101.52 0.316406 101.52 1.00781V49.4102C101.52 50.0391 101.895 50.418 102.527 50.418H117.652C123.578 50.418 126.789 47.2656 126.789 41.3438V29.7461C126.789 27.4141 125.09 25.6484 122.82 25.2734V25.1445C125.09 24.7695 126.789 23.0039 126.789 20.6719V9.07422ZM118.41 18.5898C118.41 20.168 117.527 21.0508 115.887 21.0508H110.152V8.32031H115.887C117.59 8.32031 118.41 9.20312 118.41 10.8398V18.5898ZM118.41 39.5781C118.41 41.2812 117.527 42.0977 115.887 42.0977H110.152V29.3672H115.887C117.59 29.3672 118.41 30.25 118.41 31.8906V39.5781Z" fill="#38BDF8"/>
<path d="M159.618 9.07422C159.618 3.15234 156.407 0 150.482 0H135.357C134.724 0 134.349 0.316406 134.349 1.00781V49.4102C134.349 50.0391 134.724 50.418 135.357 50.418H150.482C156.407 50.418 159.618 47.2656 159.618 41.3438V29.7461C159.618 27.4141 157.919 25.6484 155.65 25.2734V25.1445C157.919 24.7695 159.618 23.0039 159.618 20.6719V9.07422ZM151.24 18.5898C151.24 20.168 150.357 21.0508 148.716 21.0508H142.982V8.32031H148.716C150.419 8.32031 151.24 9.20312 151.24 10.8398V18.5898ZM151.24 39.5781C151.24 41.2812 150.357 42.0977 148.716 42.0977H142.982V29.3672H148.716C150.419 29.3672 151.24 30.25 151.24 31.8906V39.5781Z" fill="#38BDF8"/>
<path d="M168.176 0C167.48 0 167.168 0.378906 167.168 1.00781V49.4102C167.168 50.0391 167.48 50.418 168.176 50.418H174.73C175.359 50.418 175.738 50.0391 175.738 49.4102V1.00781C175.738 0.378906 175.359 0 174.73 0H168.176Z" fill="black"/>
<path d="M184.805 0C184.176 0.0625 183.797 0.378906 183.797 1.07031V7.375C183.797 8.00391 184.176 8.38281 184.805 8.38281H197.852L182.156 48.9062C181.777 49.7891 182.094 50.418 183.102 50.418H207.617C208.25 50.3555 208.625 49.9766 208.625 49.3477V43.1055C208.625 42.4141 208.25 42.0977 207.617 42.0977H193.754L209.445 1.51172C209.762 0.628907 209.508 0 208.5 0H184.805Z" fill="#38BDF8"/>
<path d="M4.64062 74.1214H2.95312V70.762L0 65.5589H1.8125L3.76562 68.9183H3.92188L5.82812 65.5589H7.60938L4.64062 70.762V74.1214Z" fill="black"/>
<path d="M12.3184 74.2464C11.5371 74.2464 10.8418 74.0862 10.2402 73.762C9.63477 73.4417 9.16211 72.9495 8.81836 72.2933C8.48242 71.637 8.31836 70.8206 8.31836 69.8401C8.31836 68.8636 8.48242 68.0433 8.81836 67.387C9.16211 66.723 9.63477 66.2308 10.2402 65.9183C10.8418 65.598 11.5371 65.4339 12.3184 65.4339C13.0996 65.4339 13.7871 65.598 14.3809 65.9183C14.9824 66.2308 15.4512 66.723 15.7871 67.387C16.1309 68.0433 16.3027 68.8636 16.3027 69.8401C16.3027 70.8206 16.1309 71.6448 15.7871 72.3089C15.4512 72.9651 14.9824 73.4573 14.3809 73.7776C13.7871 74.0901 13.0996 74.2464 12.3184 74.2464ZM12.3184 72.7776C13.0449 72.7776 13.5996 72.5433 13.9746 72.0745C14.3574 71.6058 14.5527 70.8636 14.5527 69.8401C14.5527 68.8206 14.3574 68.0745 13.9746 67.6058C13.5996 67.137 13.0449 66.9026 12.3184 66.9026C11.5879 66.9026 11.0293 67.137 10.6465 67.6058C10.2598 68.0745 10.0684 68.8206 10.0684 69.8401C10.0684 70.8636 10.2598 71.6058 10.6465 72.0745C11.0293 72.5433 11.5879 72.7776 12.3184 72.7776Z" fill="black"/>
<path d="M21.5273 74.2464C20.3398 74.2464 19.457 73.9651 18.8867 73.4026C18.3242 72.8401 18.043 72.0081 18.043 70.9026V65.5589H19.6992V70.9026C19.6992 71.5276 19.8477 71.9964 20.1523 72.3089C20.4531 72.6214 20.9102 72.7776 21.5273 72.7776C22.7344 72.7776 23.3398 72.1526 23.3398 70.9026V65.5589H24.9961V70.9026C24.9961 72.0081 24.707 72.8401 24.1367 73.4026C23.5742 73.9651 22.7031 74.2464 21.5273 74.2464Z" fill="black"/>
<path d="M27.1719 74.1214V65.5589H30.6094C31.5039 65.5589 32.1758 65.762 32.625 66.1683C33.0703 66.5745 33.2969 67.137 33.2969 67.8558C33.2969 68.3792 33.1641 68.805 32.9062 69.137C32.6445 69.473 32.25 69.7269 31.7188 69.9026V70.012C31.9883 70.137 32.207 70.3167 32.375 70.5433C32.5391 70.7737 32.6953 71.1136 32.8438 71.5589L33.7031 74.1214H31.9688L31.125 71.5589C31.0391 71.3011 30.9414 71.1019 30.8281 70.9651C30.7227 70.8206 30.5859 70.7151 30.4219 70.6526C30.2539 70.5901 30.0391 70.5589 29.7812 70.5589H28.875V74.1214H27.1719ZM30.4062 69.2151C31.2266 69.2151 31.6406 68.8323 31.6406 68.0589C31.6406 67.2894 31.2266 66.9026 30.4062 66.9026H28.875V69.2151H30.4062Z" fill="black"/>
<path d="M41.1055 65.5589C42.4883 65.5589 43.5469 65.9183 44.2773 66.637C45.0156 67.3558 45.3867 68.4261 45.3867 69.8401C45.3867 71.2581 45.0156 72.3245 44.2773 73.0433C43.5469 73.762 42.4883 74.1214 41.1055 74.1214H38.0117V65.5589H41.1055ZM40.9961 72.6995C41.8789 72.6995 42.543 72.4769 42.9805 72.0276C43.418 71.5706 43.6367 70.8401 43.6367 69.8401C43.6367 68.8323 43.418 68.1019 42.9805 67.6526C42.543 67.2073 41.8789 66.9808 40.9961 66.9808H39.7148V72.6995H40.9961Z" fill="#38BDF8"/>
<path d="M48.873 74.1214H47.1699V65.5589H48.873V74.1214Z" fill="#38BDF8"/>
<path d="M54.1426 74.2464C53.4316 74.2464 52.8184 74.0862 52.2988 73.762C51.7754 73.43 51.3691 72.9339 51.0801 72.2776C50.7988 71.6214 50.6582 70.8089 50.6582 69.8401C50.6582 68.8636 50.8223 68.0433 51.1582 67.387C51.502 66.7308 51.9746 66.2425 52.5801 65.9183C53.1816 65.598 53.8848 65.4339 54.6895 65.4339C55.5098 65.4339 56.209 65.5862 56.7832 65.887C57.3652 66.1917 57.7715 66.6448 58.002 67.2464L56.7676 67.9964H56.627C56.4473 67.6136 56.1973 67.3323 55.877 67.1526C55.5645 66.9769 55.166 66.887 54.6895 66.887C53.9473 66.887 53.3809 67.1214 52.9863 67.5901C52.5996 68.0589 52.4082 68.8089 52.4082 69.8401C52.4082 70.8714 52.5879 71.6214 52.9551 72.0901C53.3184 72.5589 53.8613 72.7933 54.5801 72.7933C55.1934 72.7933 55.6465 72.6605 55.9395 72.387C56.2285 72.1058 56.377 71.6917 56.377 71.137V70.762H54.3457V69.387H58.0645V74.1214H56.4395V72.9651L56.3145 72.9495C56.1465 73.3675 55.8809 73.6917 55.5176 73.9183C55.1621 74.137 54.7051 74.2464 54.1426 74.2464Z" fill="#38BDF8"/>
<path d="M61.7344 74.1214H60.0312V65.5589H61.7344V74.1214Z" fill="#38BDF8"/>
<path d="M69.7227 65.5589V66.9808H67.2383V74.1214H65.5508V66.9808H63.082V65.5589H69.7227Z" fill="#38BDF8"/>
<path d="M78.168 74.1214H76.3867L75.7461 72.1526H72.4648L71.8242 74.1214H70.0742L73.043 65.5589H75.2148L78.168 74.1214ZM74.0273 67.3401L72.918 70.7151H75.2773L74.168 67.3401H74.0273Z" fill="#38BDF8"/>
<path d="M81.1113 65.5589V72.6995H84.9551V74.1214H79.4082V65.5589H81.1113Z" fill="#38BDF8"/>
<path d="M89.1758 74.1214V65.5589H92.832C93.3633 65.5589 93.8086 65.6448 94.1758 65.8089C94.5391 65.9769 94.8164 66.2112 95.0039 66.512C95.1914 66.8167 95.2852 67.18 95.2852 67.6058C95.2852 67.9808 95.1914 68.3167 95.0039 68.6058C94.8242 68.887 94.5664 69.1175 94.2227 69.2933V69.4183C94.7617 69.5667 95.1797 69.8245 95.4727 70.1995C95.7617 70.5667 95.9102 71.0198 95.9102 71.5589C95.9102 72.3714 95.6602 73.0042 95.1602 73.4495C94.668 73.8987 93.9414 74.1214 92.9727 74.1214H89.1758ZM92.4883 68.9651C93.2773 68.9651 93.6758 68.6136 93.6758 67.9026C93.6758 67.5394 93.5742 67.2698 93.3789 67.0901C93.1797 66.9144 92.8828 66.8245 92.4883 66.8245H90.8789V68.9651H92.4883ZM92.8008 72.7776C93.7266 72.7776 94.1914 72.3558 94.1914 71.512C94.1914 70.6605 93.7266 70.2308 92.8008 70.2308H90.8789V72.7776H92.8008Z" fill="black"/>
<path d="M100.992 74.2464C99.8047 74.2464 98.9219 73.9651 98.3516 73.4026C97.7891 72.8401 97.5078 72.0081 97.5078 70.9026V65.5589H99.1641V70.9026C99.1641 71.5276 99.3125 71.9964 99.6172 72.3089C99.918 72.6214 100.375 72.7776 100.992 72.7776C102.199 72.7776 102.805 72.1526 102.805 70.9026V65.5589H104.461V70.9026C104.461 72.0081 104.172 72.8401 103.602 73.4026C103.039 73.9651 102.168 74.2464 100.992 74.2464Z" fill="black"/>
<path d="M109.324 74.2464C108.73 74.2464 108.199 74.1722 107.73 74.0276C107.27 73.8831 106.887 73.6917 106.574 73.4495C106.27 73.2112 106.035 72.9495 105.871 72.6683L106.809 71.5276H106.949C107.207 71.9144 107.535 72.223 107.934 72.4495C108.328 72.6683 108.793 72.7776 109.324 72.7776C109.781 72.7776 110.125 72.6839 110.355 72.4964C110.582 72.3011 110.699 72.0355 110.699 71.6995C110.699 71.5042 110.66 71.3362 110.59 71.1995C110.516 71.055 110.391 70.9339 110.215 70.8401C110.047 70.7464 109.812 70.6644 109.512 70.5901L108.418 70.3401C107.645 70.1644 107.074 69.8714 106.699 69.4651C106.324 69.0511 106.137 68.5198 106.137 67.8714C106.137 67.3831 106.254 66.9573 106.496 66.5901C106.734 66.2269 107.082 65.9456 107.543 65.7464C108.012 65.5394 108.566 65.4339 109.215 65.4339C109.871 65.4339 110.434 65.5237 110.902 65.6995C111.379 65.8675 111.781 66.1331 112.105 66.4964L111.262 67.637H111.121C110.879 67.387 110.605 67.1995 110.293 67.0745C109.98 66.9417 109.621 66.8714 109.215 66.8714C108.746 66.8714 108.391 66.9573 108.152 67.1214C107.91 67.2894 107.793 67.5198 107.793 67.8089C107.793 68.0823 107.875 68.2933 108.043 68.4495C108.207 68.6058 108.504 68.7308 108.934 68.8245L110.059 69.0589C110.879 69.2386 111.48 69.5355 111.855 69.9495C112.23 70.3675 112.418 70.9144 112.418 71.5901C112.418 72.1331 112.301 72.6019 112.074 72.9964C111.844 73.3948 111.496 73.6995 111.027 73.9183C110.566 74.137 110 74.2464 109.324 74.2464Z" fill="black"/>
<path d="M115.699 74.1214H113.996V65.5589H115.699V74.1214Z" fill="black"/>
<path d="M119.562 74.1214H117.922V65.5589H119.859L123.312 71.0745L123.453 71.0433V65.5589H125.094V74.1214H123.359L119.719 68.2308L119.562 68.2464V74.1214Z" fill="black"/>
<path d="M129.018 70.3558V72.6995H133.096V74.1214H127.314V65.5589H133.002V66.9651H129.018V68.9808H132.502V70.3558H129.018Z" fill="black"/>
<path d="M137.367 74.2464C136.773 74.2464 136.242 74.1722 135.773 74.0276C135.313 73.8831 134.93 73.6917 134.617 73.4495C134.313 73.2112 134.078 72.9495 133.914 72.6683L134.852 71.5276H134.992C135.25 71.9144 135.578 72.223 135.977 72.4495C136.371 72.6683 136.836 72.7776 137.367 72.7776C137.824 72.7776 138.168 72.6839 138.398 72.4964C138.625 72.3011 138.742 72.0355 138.742 71.6995C138.742 71.5042 138.703 71.3362 138.633 71.1995C138.559 71.055 138.434 70.9339 138.258 70.8401C138.09 70.7464 137.855 70.6644 137.555 70.5901L136.461 70.3401C135.688 70.1644 135.117 69.8714 134.742 69.4651C134.367 69.0511 134.18 68.5198 134.18 67.8714C134.18 67.3831 134.297 66.9573 134.539 66.5901C134.777 66.2269 135.125 65.9456 135.586 65.7464C136.055 65.5394 136.609 65.4339 137.258 65.4339C137.914 65.4339 138.477 65.5237 138.945 65.6995C139.422 65.8675 139.824 66.1331 140.148 66.4964L139.305 67.637H139.164C138.922 67.387 138.648 67.1995 138.336 67.0745C138.023 66.9417 137.664 66.8714 137.258 66.8714C136.789 66.8714 136.434 66.9573 136.195 67.1214C135.953 67.2894 135.836 67.5198 135.836 67.8089C135.836 68.0823 135.918 68.2933 136.086 68.4495C136.25 68.6058 136.547 68.7308 136.977 68.8245L138.102 69.0589C138.922 69.2386 139.523 69.5355 139.898 69.9495C140.273 70.3675 140.461 70.9144 140.461 71.5901C140.461 72.1331 140.344 72.6019 140.117 72.9964C139.887 73.3948 139.539 73.6995 139.07 73.9183C138.609 74.137 138.043 74.2464 137.367 74.2464Z" fill="black"/>
<path d="M144.727 74.2464C144.133 74.2464 143.602 74.1722 143.133 74.0276C142.672 73.8831 142.289 73.6917 141.977 73.4495C141.672 73.2112 141.437 72.9495 141.273 72.6683L142.211 71.5276H142.352C142.609 71.9144 142.937 72.223 143.336 72.4495C143.73 72.6683 144.195 72.7776 144.727 72.7776C145.184 72.7776 145.527 72.6839 145.758 72.4964C145.984 72.3011 146.102 72.0355 146.102 71.6995C146.102 71.5042 146.062 71.3362 145.992 71.1995C145.918 71.055 145.793 70.9339 145.617 70.8401C145.449 70.7464 145.215 70.6644 144.914 70.5901L143.82 70.3401C143.047 70.1644 142.477 69.8714 142.102 69.4651C141.727 69.0511 141.539 68.5198 141.539 67.8714C141.539 67.3831 141.656 66.9573 141.898 66.5901C142.137 66.2269 142.484 65.9456 142.945 65.7464C143.414 65.5394 143.969 65.4339 144.617 65.4339C145.273 65.4339 145.836 65.5237 146.305 65.6995C146.781 65.8675 147.184 66.1331 147.508 66.4964L146.664 67.637H146.523C146.281 67.387 146.008 67.1995 145.695 67.0745C145.383 66.9417 145.023 66.8714 144.617 66.8714C144.148 66.8714 143.793 66.9573 143.555 67.1214C143.312 67.2894 143.195 67.5198 143.195 67.8089C143.195 68.0823 143.277 68.2933 143.445 68.4495C143.609 68.6058 143.906 68.7308 144.336 68.8245L145.461 69.0589C146.281 69.2386 146.883 69.5355 147.258 69.9495C147.633 70.3675 147.82 70.9144 147.82 71.5901C147.82 72.1331 147.703 72.6019 147.477 72.9964C147.246 73.3948 146.898 73.6995 146.43 73.9183C145.969 74.137 145.402 74.2464 144.727 74.2464Z" fill="black"/>
<path d="M155.535 65.5589C156.148 65.5589 156.676 65.6761 157.113 65.9026C157.551 66.1214 157.879 66.4339 158.098 66.8401C158.316 67.2386 158.426 67.7073 158.426 68.2464C158.426 68.7776 158.316 69.2464 158.098 69.6526C157.879 70.0511 157.551 70.3636 157.113 70.5901C156.676 70.8206 156.148 70.9339 155.535 70.9339H153.926V74.1214H152.223V65.5589H155.535ZM155.316 69.5901C156.254 69.5901 156.723 69.1448 156.723 68.2464C156.723 67.3519 156.254 66.9026 155.316 66.9026H153.926V69.5901H155.316Z" fill="#38BDF8"/>
<path d="M167.16 74.1214H165.379L164.738 72.1526H161.457L160.816 74.1214H159.066L162.035 65.5589H164.207L167.16 74.1214ZM163.02 67.3401L161.91 70.7151H164.27L163.16 67.3401H163.02Z" fill="#38BDF8"/>
<path d="M168.4 74.1214V65.5589H171.838C172.732 65.5589 173.404 65.762 173.854 66.1683C174.299 66.5745 174.525 67.137 174.525 67.8558C174.525 68.3792 174.393 68.805 174.135 69.137C173.873 69.473 173.479 69.7269 172.947 69.9026V70.012C173.217 70.137 173.436 70.3167 173.604 70.5433C173.768 70.7737 173.924 71.1136 174.072 71.5589L174.932 74.1214H173.197L172.354 71.5589C172.268 71.3011 172.17 71.1019 172.057 70.9651C171.951 70.8206 171.814 70.7151 171.65 70.6526C171.482 70.5901 171.268 70.5589 171.01 70.5589H170.104V74.1214H168.4ZM171.635 69.2151C172.455 69.2151 172.869 68.8323 172.869 68.0589C172.869 67.2894 172.455 66.9026 171.635 66.9026H170.104V69.2151H171.635Z" fill="#38BDF8"/>
<path d="M182.176 65.5589V66.9808H179.691V74.1214H178.004V66.9808H175.535V65.5589H182.176Z" fill="#38BDF8"/>
<path d="M185.152 74.1214H183.512V65.5589H185.449L188.902 71.0745L189.043 71.0433V65.5589H190.684V74.1214H188.949L185.309 68.2308L185.152 68.2464V74.1214Z" fill="#38BDF8"/>
<path d="M194.607 70.3558V72.6995H198.686V74.1214H192.904V65.5589H198.592V66.9651H194.607V68.9808H198.092V70.3558H194.607Z" fill="#38BDF8"/>
<path d="M200.27 74.1214V65.5589H203.707C204.602 65.5589 205.273 65.762 205.723 66.1683C206.168 66.5745 206.395 67.137 206.395 67.8558C206.395 68.3792 206.262 68.805 206.004 69.137C205.742 69.473 205.348 69.7269 204.816 69.9026V70.012C205.086 70.137 205.305 70.3167 205.473 70.5433C205.637 70.7737 205.793 71.1136 205.941 71.5589L206.801 74.1214H205.066L204.223 71.5589C204.137 71.3011 204.039 71.1019 203.926 70.9651C203.82 70.8206 203.684 70.7151 203.52 70.6526C203.352 70.5901 203.137 70.5589 202.879 70.5589H201.973V74.1214H200.27ZM203.504 69.2151C204.324 69.2151 204.738 68.8323 204.738 68.0589C204.738 67.2894 204.324 66.9026 203.504 66.9026H201.973V69.2151H203.504Z" fill="#38BDF8"/>
</svg>
